<?xml version="1.0" standalone="no"?>
<!DOCTYPE svg PUBLIC "-//W3C//DTD SVG 20010904//EN"
 "http://www.w3.org/TR/2001/REC-SVG-20010904/DTD/svg10.dtd">
<svg version="1.0" xmlns="http://www.w3.org/2000/svg"
 width="310.000000pt" height="310.000000pt" viewBox="0 0 310.000000 310.000000"
 preserveAspectRatio="xMidYMid meet">
<metadata>
Created by potrace 1.14, written by Peter Selinger 2001-2017
</metadata>
<g transform="translate(0.000000,310.000000) scale(0.100000,-0.100000)"
fill="#000000" stroke="none">
<path d="M2280 2310 c0 -5 7 -31 16 -57 21 -59 23 -230 4 -288 -45 -137 -83
-216 -162 -331 -115 -168 -320 -352 -509 -457 -131 -73 -227 -113 -344 -146
-169 -46 -371 -40 -491 14 -21 10 -62 38 -91 62 -28 24 -54 43 -57 43 -15 0
-3 -37 25 -82 59 -91 171 -178 269 -207 25 -7 55 -17 68 -22 13 -5 74 -9 136
-9 250 0 546 119 811 325 348 271 551 669 481 939 -21 79 -42 120 -93 176 -43
48 -63 61 -63 40z"/>
<path d="M1765 2244 c9 -83 -6 -147 -56 -244 -144 -280 -544 -498 -782 -426
-25 7 -58 23 -73 35 -32 25 -54 27 -54 4 0 -27 99 -171 147 -213 100 -88 214
-106 398 -64 17 3 66 23 111 44 290 134 493 384 494 607 0 83 -6 99 -76 209
-48 75 -85 114 -107 114 -5 0 -6 -28 -2 -66z"/>
<path d="M3095 1610 c0 -278 1 -391 2 -253 2 139 2 367 0 505 -1 139 -2 26 -2
-252z"/>
</g>
</svg>
